<svg width="16" height="16" viewBox="0 0 16 16" fill="none" xmlns="http://www.w3.org/2000/svg">
<path d="M16 8.00024C16 12.4185 12.4182 16.0002 8 16.0002C3.58178 16.0002 0 12.4185 0 8.00024C0 3.58202 3.58178 0.000244141 8 0.000244141C12.4182 0.000244141 16 3.58202 16 8.00024Z" fill="#FFCC4D"/>
<path fill-rule="evenodd" clip-rule="evenodd" d="M0.551102 4.89713C0.657769 5.00336 1.19021 5.32247 1.29644 5.64158C1.4031 5.96025 1.61644 7.7678 2.25555 8.2998C2.91466 8.84736 5.40088 8.6438 5.87688 8.40647C6.94221 7.87536 7.07288 6.39269 7.26132 5.64158C7.36755 5.21625 8.00666 5.21625 8.00666 5.21625C8.00666 5.21625 8.64577 5.21625 8.75244 5.64114C8.94088 6.39269 9.07244 7.87536 10.1369 8.40602C10.6133 8.6438 13.0995 8.8478 13.7595 8.30025C14.3978 7.76825 14.6107 5.96069 14.7173 5.64158C14.8231 5.32291 15.3564 5.0038 15.4627 4.89758C15.5698 4.79136 15.5698 4.36602 15.4627 4.25936C15.2498 4.04691 12.7364 3.85758 10.0302 4.15313C9.49021 4.21225 9.28488 4.36558 8.00621 4.36558C6.72844 4.36558 6.52221 4.2118 5.98266 4.15313C3.27821 3.85713 0.764436 4.04647 0.551102 4.25891C0.44488 4.36513 0.44488 4.79091 0.551102 4.89713Z" fill="#292F33"/>
<path d="M12.1489 10.502C12.0698 10.4305 11.9516 10.426 11.8667 10.4892C11.8493 10.502 10.1236 11.778 8 11.778C5.88177 11.778 4.15022 10.502 4.13333 10.4892C4.04844 10.426 3.93022 10.4314 3.85111 10.502C3.77244 10.5731 3.75466 10.6905 3.80933 10.7811C3.86666 10.8767 5.23911 13.1114 8 13.1114C10.7609 13.1114 12.1338 10.8767 12.1907 10.7811C12.2453 10.69 12.228 10.5731 12.1489 10.502Z" fill="#664500"/>
</svg>
