<svg width="16" height="16" viewBox="0 0 16 16" fill="none" xmlns="http://www.w3.org/2000/svg">
<path d="M16 8.00024C16 12.4185 12.4182 16.0002 8 16.0002C3.58178 16.0002 0 12.4185 0 8.00024C0 3.58202 3.58178 0.000244141 8 0.000244141C12.4182 0.000244141 16 3.58202 16 8.00024Z" fill="#FFCC4D"/>
<path d="M8.00003 9.71094C6.68181 9.71094 5.8067 9.55717 4.72492 9.34694C4.47736 9.29983 3.99692 9.34694 3.99692 10.0749C3.99692 11.5305 5.66936 13.3501 8.00003 13.3501C10.3307 13.3501 12.0031 11.5305 12.0031 10.0749C12.0031 9.34694 11.5223 9.29939 11.2751 9.34694C10.1934 9.55717 9.3187 9.71094 8.00003 9.71094Z" fill="#664500"/>
<path d="M7.4 1.45848C7.01822 0.378033 5.83377 -0.189078 4.75289 0.19181C4.09689 0.422922 3.63244 0.952255 3.45155 1.57137C2.92222 1.20292 2.22889 1.08248 1.57377 1.31359C0.493774 1.69492 -0.0742258 2.88025 0.307552 3.9607C0.361774 4.11359 0.433774 4.25537 0.51733 4.38648C1.38444 5.97848 3.88977 7.09759 5.40666 7.11137C6.57866 6.14825 7.82711 3.7047 7.50355 1.92159C7.48666 1.76692 7.45333 1.61137 7.4 1.45848ZM8.6 1.45848C8.98177 0.378033 10.1667 -0.189078 11.2471 0.19181C11.9031 0.422922 12.3676 0.952255 12.5489 1.57137C13.0782 1.20292 13.7716 1.08248 14.4267 1.31359C15.5067 1.69492 16.0742 2.88025 15.6933 3.9607C15.6387 4.11359 15.5671 4.25537 15.4831 4.38648C14.616 5.97848 12.1107 7.09759 10.5933 7.11137C9.42133 6.14825 8.17333 3.7047 8.49689 1.92159C8.51333 1.76692 8.54666 1.61137 8.6 1.45848Z" fill="#DD2E44"/>
</svg>
