<svg width="133" height="72" viewBox="0 0 133 72" fill="none" xmlns="http://www.w3.org/2000/svg">
<path d="M56.0998 1.37866L35.4998 12.8787L132 58.8929L56.0998 1.37866Z" fill="white" stroke="white"/>
<path d="M132 59.3787L34.9998 13.3787V49.0766L132 59.3787Z" fill="#B3B3B3" stroke="white"/>
<path d="M82.8406 15.5727H91.9283L82.8406 25.7965V41.7001C82.8406 50.2199 77.1607 52.4751 74.3208 53.0598C64.665 55.0478 51.8853 52.4918 44.7855 51.9238C49.1022 50.7879 50.7493 46.9066 51.0333 45.108C51.412 37.7242 51.0333 23.5245 53.0213 18.1287C58.7759 2.50909 76.782 9.32486 82.8406 15.5727Z" fill="url(#paint0_linear_17_2194)"/>
<circle cx="3.12392" cy="3.12392" r="3.12392" transform="matrix(-1 0 0 1 74.8888 15.391)" fill="white"/>
<circle cx="1.70396" cy="1.70396" r="1.70396" transform="matrix(-1 0 0 1 73.7528 16.527)" fill="black"/>
<rect width="0.567986" height="18.1756" transform="matrix(-1 0 0 1 65.233 53.4459)" fill="white"/>
<rect width="0.567986" height="18.1756" transform="matrix(-1 0 0 1 62.961 53.4459)" fill="white"/>
<path d="M33.2355 57.4787L27.814 44.043L132 58.8789L33.2355 57.4787Z" fill="url(#paint1_linear_17_2194)"/>
<path d="M132 58.8788L22.1569 21.4144L-0.000244141 40.2716L132 58.8788Z" fill="white"/>
<defs>
<linearGradient id="paint0_linear_17_2194" x1="110.196" y1="-11.7783" x2="27.467" y2="1.17654" gradientUnits="userSpaceOnUse">
<stop stop-color="#D338F9"/>
<stop offset="0.535375" stop-color="#9C9CFF"/>
<stop offset="0.984375" stop-color="#6AF2FB"/>
</linearGradient>
<linearGradient id="paint1_linear_17_2194" x1="29.2283" y1="51.475" x2="131.057" y2="59.4893" gradientUnits="userSpaceOnUse">
<stop stop-color="#D9D9D9"/>
<stop offset="1" stop-color="#9B9B9B"/>
</linearGradient>
</defs>
</svg>
