<svg width="16" height="16" viewBox="0 0 16 16" fill="none" xmlns="http://www.w3.org/2000/svg">
<path d="M8 16.0002C12.4183 16.0002 16 12.4185 16 8.00024C16 3.58197 12.4183 0.000244141 8 0.000244141C3.58172 0.000244141 0 3.58197 0 8.00024C0 12.4185 3.58172 16.0002 8 16.0002Z" fill="#FFCC4D"/>
<path d="M8 9.33356C6.38978 9.33356 5.32134 9.14601 4 8.88912C3.69823 8.8309 3.11111 8.88912 3.11111 9.77801C3.11111 11.5558 5.15334 13.778 8 13.778C10.8462 13.778 12.8889 11.5558 12.8889 9.77801C12.8889 8.88912 12.3018 8.83045 12 8.88912C10.6787 9.14601 9.61023 9.33356 8 9.33356Z" fill="#664500"/>
<path d="M4 9.77802C4 9.77802 5.33333 10.2225 8 10.2225C10.6667 10.2225 12 9.77802 12 9.77802C12 9.77802 11.1111 11.5558 8 11.5558C4.88889 11.5558 4 9.77802 4 9.77802Z" fill="white"/>
<path d="M5.33334 7.55581C5.94699 7.55581 6.44445 6.85937 6.44445 6.00026C6.44445 5.14115 5.94699 4.4447 5.33334 4.4447C4.71969 4.4447 4.22223 5.14115 4.22223 6.00026C4.22223 6.85937 4.71969 7.55581 5.33334 7.55581Z" fill="#664500"/>
<path d="M10.6667 7.55581C11.2803 7.55581 11.7778 6.85937 11.7778 6.00026C11.7778 5.14115 11.2803 4.4447 10.6667 4.4447C10.053 4.4447 9.55556 5.14115 9.55556 6.00026C9.55556 6.85937 10.053 7.55581 10.6667 7.55581Z" fill="#664500"/>
</svg>
